<?xml version="1.0" encoding="UTF-8" standalone="no"?>
<!-- Created with Inkscape (http://www.inkscape.org/) -->

<svg
   width="41.264679mm"
   height="18.975691mm"
   viewBox="0 0 41.264679 18.975691"
   version="1.1"
   id="svg1"
   inkscape:export-filename="bitmap.svg"
   inkscape:export-xdpi="96"
   inkscape:export-ydpi="96"
   xmlns:inkscape="http://www.inkscape.org/namespaces/inkscape"
   xmlns:sodipodi="http://sodipodi.sourceforge.net/DTD/sodipodi-0.dtd"
   xmlns:xlink="http://www.w3.org/1999/xlink"
   xmlns="http://www.w3.org/2000/svg"
   xmlns:svg="http://www.w3.org/2000/svg">
  <sodipodi:namedview
     id="namedview1"
     pagecolor="#505050"
     bordercolor="#eeeeee"
     borderopacity="1"
     inkscape:showpageshadow="0"
     inkscape:pageopacity="0"
     inkscape:pagecheckerboard="0"
     inkscape:deskcolor="#505050"
     inkscape:document-units="mm">
    <inkscape:page
       x="0"
       y="0"
       width="41.264679"
       height="18.975691"
       id="page2"
       margin="0"
       bleed="0" />
  </sodipodi:namedview>
  <defs
     id="defs1">
    <linearGradient
       id="linearGradient2"
       inkscape:collect="always">
      <stop
         style="stop-color:#1565ce;stop-opacity:1;"
         offset="0"
         id="stop2" />
      <stop
         style="stop-color:#ffffff;stop-opacity:0;"
         offset="1"
         id="stop3" />
    </linearGradient>
    <linearGradient
       inkscape:collect="always"
       xlink:href="#linearGradient2"
       id="linearGradient3"
       x1="64.100578"
       y1="133.07314"
       x2="106.71619"
       y2="133.07314"
       gradientUnits="userSpaceOnUse" />
  </defs>
  <g
     inkscape:label="Camada 1"
     inkscape:groupmode="layer"
     id="layer1"
     transform="translate(-62.068572,-127.92723)">
    <path
       d="m 72.216552,141.57334 q -0.02696,-0.0674 -0.09437,-0.1483 -0.06741,-0.0809 -0.215707,-0.16178 -0.283115,-0.16178 -0.377487,-0.16178 -0.02696,0 -0.08089,0.0135 -0.05393,0.0135 -0.121335,0.0135 -0.06741,0.027 -0.107854,0.0404 -0.02696,0.0135 -0.05393,0.0135 -0.02696,0 -0.06741,0 -0.02696,0 -0.06741,-0.027 -0.512304,-0.22919 -1.011126,-0.49882 -0.485341,-0.28312 -0.9572,-0.63364 -0.687566,-0.66061 -1.199871,-1.19987 -0.512304,-0.55275 -0.889791,-0.98417 -0.175262,-0.18874 -0.296597,-0.48534 -0.121335,-0.31008 -0.229189,-0.70105 -0.107854,-0.39096 -0.215707,-0.6606 -0.09437,-0.26963 -0.202225,-0.41793 v -0.74149 q -0.06741,-0.0674 -0.121336,-0.10786 -0.04045,-0.0404 -0.06741,-0.10785 -0.02696,-0.21571 -0.02696,-0.45838 0,-0.24267 0,-0.5123 0,-2.07618 0.24267,-2.89857 0.296597,-1.03809 0.444896,-1.60432 0.148298,-0.57971 0.215707,-0.68756 0.24267,-0.39097 0.579712,-0.57972 0.188744,-0.39096 0.350524,-0.67408 0.175262,-0.2966 0.323561,-0.48534 1.051572,-0.9572 1.563876,-1.4021 0.215707,-0.25615 0.728011,-0.41793 0.485341,-0.16178 0.687566,-0.364 v -0.10786 q 0,-0.12133 -0.202225,-0.16178 -0.148299,-0.0404 -0.229189,-0.0809 -0.06741,-0.0404 -0.09437,-0.0674 -0.417932,0.21571 -0.579712,0.41794 -0.06741,0.0404 -0.188744,0.0809 -0.121335,0.027 -0.310079,0.027 -0.16178,0.027 -0.296597,0.0809 -0.121335,0.0539 -0.229189,0.12133 -0.148298,0.10786 -0.390969,0.31008 -0.24267,0.20223 -0.552749,0.51231 -0.310079,0.31008 -0.552749,0.52578 -0.242671,0.20223 -0.431414,0.31008 -0.134817,0.0809 -0.337042,0.37749 -0.148299,0.26963 -0.323561,0.36401 -0.188744,0.10785 -0.310079,0.26963 -0.107853,0.16178 -0.188744,0.39097 -0.175262,0.52578 -0.364005,0.71453 -0.107854,0.31008 -0.229189,0.56623 -0.107853,0.24267 -0.215707,0.43141 -0.02696,0.20223 -0.121335,0.55275 -0.09437,0.35053 -0.256152,0.84935 -0.310079,0.88979 -0.310079,1.41558 v 0.26963 q -0.06741,0.22919 -0.09437,0.35052 -0.04044,0.12134 -0.04044,0.1483 0,0.027 0,0.0809 0,0.0539 0.02696,0.12134 0.02696,0.0674 0.02696,0.10785 0,0.027 0,0.0539 0,0.0674 0,0.1483 0,0.0674 -0.02696,0.17526 -0.02696,0.10785 -0.02696,0.17526 0,0.0674 0,0.13482 0,0.53927 0.16178,0.82238 -0.02696,0.0404 -0.02696,0.0809 0,0.0405 0,0.0674 0,0.13482 0.215707,0.35052 0.229189,0.22919 0.229189,0.41794 0,0.0674 -0.08089,0.26963 -0.08089,0.17526 -0.08089,0.22919 0.310079,0.72801 0.687567,1.34817 0.390969,0.62015 0.849346,1.18639 0.134817,-0.0405 0.310079,0.14829 0.06741,0.0809 0.107853,0.12134 0.05393,0.0404 0.08089,0.0674 0.390969,0.35052 0.687566,0.64712 0.310079,0.2966 0.498822,0.56623 0.512304,0.35052 0.930237,0.57971 0.417932,0.22919 0.728011,0.33704 0.471859,0.0809 0.660603,0.0809 0.107853,0.0674 0.188743,0.12134 0.08089,0.0404 0.148299,0.0674 0.390969,0.1483 0.687566,0.24267 0.310079,0.0809 0.525786,0.1483 h 0.08089 q 0.485341,0 0.525786,-0.52579 z m 6.066761,-11.68862 q -0.04045,-0.24267 -0.364006,-0.24267 -0.215707,0 -0.579713,0.18874 -0.337042,0.20223 -0.579712,0.20223 -0.107854,0.0674 -0.337043,0.17526 -0.229188,0.10785 -0.620157,0.29659 -0.620158,0.28312 -0.889792,0.60668 -0.121335,0.16178 -0.229189,0.28312 -0.09437,0.12133 -0.16178,0.20222 -0.390969,0.35053 -0.674084,0.63364 -0.269634,0.26963 -0.458378,0.47186 -0.310079,0.49882 -0.431414,0.78194 -0.134817,-0.18875 -0.215707,-0.49882 -0.06741,-0.31008 -0.06741,-0.7415 -0.04045,-0.83586 -0.323561,-1.22683 h -0.121335 l -0.188744,0.31008 q 0.02696,0.1483 0.01348,0.35052 -0.01348,0.18875 -0.04045,0.41793 -0.02696,0.26964 -0.04044,0.45838 -0.01348,0.18874 -0.01348,0.2966 0,0.78194 0.16178,2.25144 0.161781,1.45602 0.498823,3.62658 0.175262,0.68756 0.310079,1.1729 0.134817,0.47186 0.24267,0.75498 0.06741,0.35052 0.107854,0.62015 0.05393,0.26964 0.08089,0.45838 0.09437,0 0.202225,0.18875 0.08089,0.17526 0.188744,0.17526 0.08089,0 0.16178,-0.17526 -0.107853,-0.60668 -0.188744,-1.32121 -0.08089,-0.72801 -0.107853,-1.57736 -0.02696,-0.39097 -0.01348,-0.67408 0.01348,-0.2966 -0.01348,-0.51231 -0.02696,-0.37748 -0.04045,-0.53926 -0.01348,-0.17527 -0.01348,-0.1483 0,-0.43142 0.04045,-0.94372 0.05393,-0.51231 0.175262,-1.09202 0.121335,-0.68756 0.296597,-1.15942 0.188744,-0.48534 0.390969,-0.75498 0.121335,-0.16178 0.256152,-0.16178 0,-0.13481 0.08089,-0.2157 0.121335,-0.33705 0.485341,-0.72802 0.377487,-0.39097 0.943718,-0.84934 1.159426,-0.88979 1.860474,-1.05157 0.08089,-0.10786 0.134816,-0.17527 0.05393,-0.0674 0.08089,-0.13481 z m 6.606028,11.16284 v -0.10786 q -0.134817,-0.17526 -0.283116,-0.17526 -0.02696,0 -0.06741,0 -0.02696,0 -0.09437,0.027 -0.04045,0.027 -0.08089,0.027 -0.02696,0 -0.05393,0 -0.229189,0 -0.781938,-0.18875 -0.552749,-0.16178 -0.687566,-0.29659 -0.512304,-0.17527 -0.889792,-0.2966 -0.377487,-0.12134 -0.633639,-0.20223 -0.687566,-0.67408 -0.903273,-1.05157 -0.63364,-1.34817 -0.63364,-2.10314 0,-0.027 0,-0.0539 0,-0.027 0.02696,-0.0539 -0.06741,-0.10785 -0.107854,-0.16178 -0.04045,-0.0674 -0.06741,-0.13481 0,-0.0539 0.02696,-0.0944 0.02696,-0.0539 0.06741,-0.13482 0.02696,-0.0674 0.04045,-0.10785 0.01348,-0.0404 0.01348,-0.0809 v -0.0809 q 0.04044,-0.0809 0.16178,-0.0809 0.04045,0 0.08089,0 0.04044,0 0.107853,0.027 v 0.027 H 80.5752 q 0.134817,0 0.188744,-0.027 v 0.027 h 0.256152 q 0.148298,0 0.728011,-0.13482 0.579713,-0.14829 1.617803,-0.39096 0.296597,-0.0674 0.498822,-0.0944 0.202226,-0.027 0.350524,-0.0539 0.02696,0 0.02696,-0.0809 0.06741,-0.0809 0.09437,-0.0539 v -0.24267 q -0.215707,-0.16178 -0.390969,-0.16178 -0.148298,0 -1.172907,-0.027 -1.024608,-0.027 -2.939008,-0.0674 -0.02696,-0.0674 -0.02696,-0.10786 0,-0.0404 0,-0.10785 0,-0.18874 0.107853,-0.39097 0.390969,-0.6606 0.71453,-1.09202 0.32356,-0.43141 0.606676,-0.62015 0.687566,-0.41794 1.240315,-0.70105 0.552749,-0.2966 0.970682,-0.5123 0.02696,-0.027 0.02696,-0.0539 0,-0.027 -0.215707,-0.16178 -0.606676,0.0674 -1.186389,0.22919 -0.566231,0.16178 -1.078535,0.43141 -0.188743,0.10785 -0.417932,0.28312 -0.229189,0.16178 -0.525786,0.40445 -0.283115,0.22919 -0.471859,0.41793 -0.188744,0.18874 -0.269634,0.33704 -0.148299,0.22919 -0.269634,0.41793 -0.121335,0.17527 -0.229188,0.32356 -0.04045,0.20223 -0.08089,0.32357 -0.121335,0.44489 -0.417932,0.94371 -0.121335,-0.027 -0.269634,-0.0135 -0.148298,0.0135 -0.337042,0.0944 -0.444896,0.16178 -0.579713,0.22919 0.05393,0.0539 -0.08089,0.13482 v 0.0539 q 0,-0.027 0.02696,0.0404 0.01348,0.0539 0.08089,0.17526 0.16178,0.0809 0.552749,0.0809 0.390969,0 0.552749,0.20223 -0.02696,0.0674 -0.01348,0.1483 0.01348,0.0809 0.04045,0.22919 h -0.02696 v 0.14829 q 0,-0.10785 0.01348,0.0404 0.02696,0.1483 0.09437,0.53927 0.431414,1.55039 0.728011,2.23796 0.09437,0.22919 0.431414,0.45837 0.175262,0.10786 0.269634,0.22919 0.107853,0.10786 0.175262,0.21571 0.08089,0.18874 0.417932,0.31008 0.310079,0.13482 0.377488,0.26963 0.296597,0.20223 1.024608,0.28312 0.350524,0.0404 0.606676,0.10785 0.269634,0.0539 0.417932,0.16178 0.256152,-0.027 0.404451,-0.0404 0.16178,-0.0135 0.229189,-0.0135 0.121335,0 0.24267,0.0135 0.121335,0.0135 0.229189,0.0404 0.08089,0.21571 0.471859,0.21571 0.498823,0 0.498823,-0.35052 z m 7.671081,-8.80355 q 0,0.0404 -0.04045,-0.0809 -0.04044,-0.12133 -0.148299,-0.39097 -0.121335,-0.0809 -0.256152,-0.0809 -0.06741,0 -0.134817,0.0135 -0.05393,0.0135 -0.16178,0.0405 -0.08089,0.027 -0.148299,0.0404 -0.06741,0.0135 -0.134817,0.0135 -0.107853,0 -0.16178,-0.027 0.06741,-0.0809 0.08089,-0.17526 0.02696,-0.10785 0.02696,-0.21571 0,-0.0809 -0.01348,-0.20222 -0.01348,-0.12134 -0.04045,-0.26963 -0.02696,-0.1483 -0.04045,-0.25616 -0.01348,-0.12133 -0.01348,-0.18874 0,-0.0404 0.01348,-0.0944 0.01348,-0.0539 0.04045,-0.12134 0.02696,-0.0674 0.04045,-0.10785 0.01348,-0.0404 0.01348,-0.0809 0,-0.22919 -0.215707,-0.22919 -0.256153,0 -0.310079,0.12134 -0.431414,0.63363 -0.431414,1.67172 v 0.0674 q 0,0.18875 -0.47186,0.26964 -0.970681,0.26963 -1.698692,0.5123 -0.71453,0.24267 -1.172907,0.43142 0,0.0539 -0.134817,0.18874 -0.121336,0.10785 -0.121336,0.18874 -0.364005,0.39097 -0.633639,0.55275 -0.02696,0.18875 -0.148299,0.4449 -0.107853,0.25615 -0.310078,0.60667 -0.417933,0.70105 -0.417933,1.13247 0,0.0674 0.01348,0.14829 0.01348,0.0809 0.04045,0.18875 0.02696,0.10785 0.04044,0.17526 0.01348,0.0539 0.01348,0.0944 0.121335,1.6178 0.390969,2.04922 0.417932,0.31008 0.701048,0.53927 0.296597,0.22918 0.48534,0.41793 0.849347,0.39097 1.469505,0.67408 0.633639,0.26964 1.065053,0.43142 h 0.337042 q 0.242671,0.12133 0.242671,0.20222 -0.107854,0.17526 -0.107854,0.45838 0,-0.0674 0.01348,0.10785 0.01348,0.16178 0.04044,0.51231 0.121335,0.16178 0.16178,0.16178 0.134817,0.0944 0.256152,0.0539 0.148299,-0.43141 0.242671,-0.82238 0.09437,-0.39097 0.134817,-0.70105 0.02696,-0.027 0.05393,-0.027 0.04045,0 0.06741,0 0.121335,0 0.32356,0.0809 0.107854,0.027 0.175262,0.0404 0.06741,0.0135 0.134817,0.0135 0.269634,0 0.458378,-0.0135 0.202225,-0.027 0.310079,-0.0944 v -0.2157 q 0,-0.10786 -0.161781,-0.10786 -0.148298,0 -0.431414,-0.0135 -0.283115,-0.027 -0.674084,-0.0944 -0.134817,0 -0.134817,-0.1483 0,-0.26963 0.02696,-0.21571 0.04045,-0.12133 0.06741,-0.2157 0.04045,-0.10786 0.06741,-0.17527 0,-0.26963 0.08089,-0.79541 0.02696,-0.26964 0.04045,-0.48535 0.01348,-0.22918 0.01348,-0.37748 0,-0.0404 0,-0.0944 0,-0.0539 -0.02696,-0.12134 v -0.24267 q 0,-0.12134 0.134817,-0.25615 v -0.32356 q 0,-0.56623 -0.08089,-1.63129 -0.08089,-1.05157 -0.08089,-1.55039 v -0.26964 q 0.02696,-0.10785 0.02696,-0.17526 0,-0.0674 0,-0.10785 0,-0.53927 0.08089,-0.6606 0.741493,-0.0404 1.105498,-0.0809 0.02696,-0.027 0.02696,-0.0539 0,-0.027 0,-0.0539 z m -2.184034,0.48534 q 0,1.09202 -0.24267,1.49647 0,0.0674 0,0.1483 0,0.0809 0.02696,0.18874 v 0.2966 q -0.107854,0.10785 -0.107854,0.33704 0,0.027 0,0.0809 0,0.0539 0.02696,0.13482 v 0.21571 q 0,0.12133 -0.05393,0.22919 0.107854,0.17526 0.107854,0.57971 v 0.57971 q -0.06741,0.10785 -0.09437,0.24267 -0.01348,0.13482 -0.01348,0.28312 0,0.0674 0,0.16178 0,0.0944 0.02696,0.24267 0.02696,0.13481 0.02696,0.22919 0,0.0944 0,0.16178 0,0.0404 0,0.10785 0,0.0539 -0.02696,0.12133 -0.02696,0.0674 -0.02696,0.12134 0,0.0404 0,0.0674 0,0.45838 0.16178,0.57971 0.02696,0.0405 0.02696,0.0809 0,0.027 0,0.0539 0,0.0539 -0.08089,0.28311 -0.02696,0.0809 -0.04045,0.1483 -0.01348,0.0539 -0.01348,0.12134 0,0.0809 0.05393,0.13481 -0.107854,0.027 -0.188744,0.0404 -0.08089,0.0135 -0.148299,0.0135 -0.06741,-0.1483 -0.134817,-0.22919 -0.06741,-0.0809 -0.134816,-0.12133 -0.310079,-0.10786 -0.674085,-0.28312 -0.350524,-0.17526 -0.768456,-0.40445 -0.364006,-0.41793 -0.579713,-0.57971 -0.107853,-0.18875 -0.215707,-0.36401 -0.107853,-0.17526 -0.215707,-0.364 -0.134817,-0.22919 -0.202225,-0.41794 -0.05393,-0.20222 -0.05393,-0.35052 v -0.84935 q 0,-2.21099 3.154715,-3.62657 0.06741,-0.027 0.107854,-0.0404 0.04045,-0.0135 0.08089,-0.0135 0.215707,0 0.215707,0.16178 z m 8.277757,-4.66466 q 0,-0.027 -0.02696,-0.0539 0.02696,-0.027 0.02696,-0.0809 0,-0.0539 -0.107854,-0.16178 -0.04044,-0.0674 -0.06741,-0.10785 -0.01348,-0.0405 -0.04044,-0.0674 h -0.107854 q -0.06741,0 -0.134817,0.027 -0.06741,0.027 -0.175261,0.0674 -0.08089,0.027 -0.148299,0.0404 -0.05393,0.0135 -0.09437,0.0135 -0.741493,0 -1.078535,-0.20223 -1.698693,-0.0809 -1.739138,-0.0809 -0.16178,0 -0.16178,-0.18874 v -0.10785 q 0.02696,-0.51231 0.02696,-0.82239 0,-0.32356 0,-0.44489 0,-0.55275 -0.04045,-1.01113 -0.04044,-0.45838 -0.107853,-0.84935 -0.121336,-0.16178 -0.188744,-0.16178 h -0.08089 q -0.269634,0.43142 -0.404451,1.19987 -0.121335,0.75498 -0.121335,1.80655 0,0.21571 0,0.2966 0,0.0809 0.02696,0.0135 -0.107853,0.10785 -0.202225,0.16178 -0.08089,0.0539 -0.188744,0.0809 -0.781938,0.1483 -1.388614,0.24267 -0.593194,0.0809 -0.984163,0.1483 -0.02696,0.027 -0.05393,0.0539 -0.01348,0.027 -0.05393,0.0539 -0.08089,0.0405 -0.08089,0.10786 v 0.0809 q 0.107854,0.26963 0.242671,0.364 0.188743,0.0674 0.48534,0.10785 0.310079,0.027 0.728012,0.027 0.390969,-0.027 0.701048,0.0135 0.310078,0.027 0.498822,0.0944 0.02696,1.94136 0.06741,3.1682 0.05393,1.21335 0.121336,1.72565 0.08089,0.0405 0.08089,0.13482 0,0.027 -0.01348,0.0674 -0.01348,0.027 -0.01348,0.0944 -0.04045,0.0539 -0.05393,0.0944 0,0.027 -0.02696,0.0539 0.107854,0.47186 0.148299,0.82238 0.04045,0.33705 0.04045,0.52579 v 0.13482 q 0.148299,0.43141 0.24267,0.76845 0.107854,0.33704 0.148299,0.56623 0.09437,0.31008 0.16178,0.45838 0.08089,0.33704 0.121335,0.5932 0.05393,0.24267 0.09437,0.43141 l 0.471859,2.15707 q 0.121336,0.55275 0.337043,0.63364 v 0.16178 q 0,0.0404 0,0.0809 0,0.0404 -0.02696,0.0674 v 0.0539 q 0,0.0404 0.01348,0.10786 0.01348,0.0539 0.04045,0.13482 0.02696,0.0809 0.04044,0.13481 0.01348,0.0539 0.01348,0.0809 0.16178,0.25615 0.24267,0.25615 h 0.121335 q 0.02696,-0.027 0.06741,-0.0809 0.05393,-0.0674 0.121335,-0.17526 -0.06741,-0.35052 -0.121335,-0.59319 -0.05393,-0.25615 -0.09437,-0.41793 -0.02696,-0.1483 -0.06741,-0.26964 -0.02696,-0.12133 -0.05393,-0.20222 -0.16178,-0.99765 -0.269634,-1.75262 -0.09437,-0.76846 -0.16178,-1.30773 -0.148299,-1.09201 -0.229189,-1.72565 -0.08089,-0.63364 -0.08089,-0.82239 v -0.2157 -0.20223 q 0,-0.43141 -0.08089,-1.29424 -0.08089,-0.87631 -0.08089,-1.29424 0,-0.10786 0.01348,-0.22919 0.01348,-0.13482 0.01348,-0.2966 0.02696,-0.16178 0.04045,-0.28311 0.01348,-0.12134 0.01348,-0.18875 0,-0.26963 -0.08089,-0.87631 -0.02696,-0.2966 -0.04045,-0.49882 -0.01348,-0.21571 -0.01348,-0.36401 v -0.24267 q 0.175262,-0.13481 0.404451,-0.13481 0.05393,0 0.107853,0 0.06741,0 0.148299,0.027 h 0.24267 q 0.06741,0 0.16178,-0.0135 0.107854,-0.027 0.229189,-0.0809 0.768456,-0.18875 1.375132,-0.28312 0.620158,-0.10785 1.051572,-0.17526 0.02696,-0.0539 0.04045,-0.0944 0.01348,-0.0404 0.01348,-0.0809 z m 0.579712,-2.39974 q -0.107853,-0.0809 -0.188743,-0.12134 -0.06741,-0.0404 -0.134817,-0.0674 -0.06741,-0.027 -0.188744,-0.0404 -0.107854,-0.0135 -0.256152,-0.0405 -0.107854,0.0405 -0.202225,0.0674 -0.09437,0.0135 -0.161781,0.0404 -0.215707,0.2157 -0.215707,0.41793 0,0.0809 -0.01348,0.18874 -0.01348,0.0944 -0.01348,0.24267 -0.02696,0.13482 -0.04045,0.22919 -0.01348,0.0944 -0.01348,0.16178 0,0.17527 0.16178,0.4449 0.107854,0.1483 0.161781,0.24267 0.06741,0.0944 0.107853,0.13482 0.02696,0.027 0.05393,0.0539 0.04045,0.0135 0.06741,0.0135 -0.06741,0 0.323561,-0.17526 0.121335,-0.31008 0.229189,-0.5123 0.107853,-0.21571 0.188743,-0.36401 0.06741,-0.31008 0.08089,-0.53926 0.02696,-0.22919 0.05393,-0.37749 z m -0.188743,6.16113 q -0.08089,-0.17526 -0.121336,-0.31008 -0.04045,-0.13482 -0.01348,-0.24267 v -0.0539 q 0,-0.0944 0.08089,-0.22918 -0.04044,-0.28312 -0.202226,-0.43142 -0.121335,-0.17526 -0.984163,-0.17526 -0.06741,0 -0.188744,0.0135 -0.121335,0.0135 -0.283115,0.0404 -0.175262,0.027 -0.296597,0.0404 -0.121335,0.0135 -0.229189,-0.0135 h -0.134817 q -0.202225,0.13482 -0.202225,0.36401 0,0.2157 0.364005,0.364 0.242671,0.10785 0.390969,0.17526 0.148299,0.0674 0.188744,0.0944 0.06741,0.0809 0.107854,0.20223 0.05393,0.12133 0.08089,0.26963 0.04044,0.31008 0.175262,0.41794 0.02696,0.18874 0.02696,0.37748 0,0.17527 0,0.36401 0,1.13246 -0.525786,5.24438 -0.107853,0.8089 -0.175262,1.34817 -0.05393,0.53926 -0.05393,0.8089 0,0.18874 0.256153,0.18874 l 0.08089,-0.027 q 0.121335,-0.22919 0.188743,-0.41794 0.06741,-0.18874 0.107854,-0.35052 0.175262,-0.84935 0.296597,-1.50995 0.134817,-0.6606 0.202225,-1.09202 0.296598,-1.83351 0.498823,-3.18167 0.215707,-1.36166 0.364006,-2.27841 z m 7.671076,3.80184 v -0.32356 q -0.027,-0.10786 -0.027,-0.18875 0,-0.0809 0,-0.1483 -0.0674,-0.0674 -0.12133,-0.18874 -0.0404,-0.12134 -0.0404,-0.31008 -0.0404,-0.35052 -0.25615,-0.48534 -0.2966,-0.40445 -0.49882,-0.55275 -0.32356,-0.25615 -0.5932,-0.41793 -0.26963,-0.17526 -0.45838,-0.28312 -0.43141,-0.16178 -0.76845,-0.26963 -0.32356,-0.12134 -0.55275,-0.18874 -0.0674,0 -0.1483,0.0135 -0.0674,0.0135 -0.17526,0.0404 -0.10785,0.027 -0.18875,0.0404 -0.0809,0.0135 -0.14829,0.0135 -0.0674,0 -0.12134,0 -0.0539,0 -0.0944,-0.027 -0.52579,0.0809 -0.75498,0.18874 0.027,0.0404 -0.027,0.0944 -0.0539,0.0539 -0.16178,0.0944 -0.37749,0.18875 -0.57971,0.22919 -0.21571,0.18875 -0.37749,0.35053 -0.16178,0.16178 -0.31008,0.31007 -0.10785,0.22919 -0.2157,0.39097 -0.0944,0.16178 -0.175267,0.26964 -0.24267,1.90092 -0.24267,1.96832 0,0.35053 0.24267,0.82239 0.121337,0.20222 0.242667,0.40445 0.12134,0.20222 0.22919,0.39097 0.26964,0.31008 0.48534,0.53926 0.22919,0.21571 0.39097,0.32357 0.31008,0.10785 0.53927,0.17526 0.22919,0.0539 0.37749,0.12133 0.0674,0.027 0.17526,0.027 0.12133,0 0.2966,0 0.0674,0 0.13481,0 0.0809,0 0.18875,0.027 0.10785,0.027 0.18874,0.0404 0.0809,0 0.1483,0 1.14594,0 2.07618,-0.88979 0.0674,-0.0809 0.12133,-0.13481 0.0539,-0.0674 0.0944,-0.10786 0.35052,-0.37749 0.52578,-0.62016 0.18875,-0.24267 0.21571,-0.35052 0.18874,-0.6606 0.28311,-1.03809 0.0539,-0.20222 0.0809,-0.35052 z m -1.34816,0.22919 q -0.25616,0.35052 -0.4449,0.62015 -0.17526,0.26964 -0.28312,0.45838 -0.14829,-0.027 -0.28311,0.0539 -0.12134,0.0674 -0.26963,0.2157 -0.22919,0.2966 -0.45838,0.33705 -0.13482,0.0809 -0.39097,0.0809 -0.26963,0.0404 -0.36401,0.10785 -0.027,-0.027 -0.18874,-0.0674 -0.1483,-0.0404 -0.41793,-0.12133 -0.36401,-0.12134 -0.49883,-0.33705 -0.49882,-0.28311 -0.82238,-0.82238 -0.10785,-0.26963 -0.17526,-0.48534 -0.0674,-0.22919 -0.10785,-0.37749 -0.027,-0.0674 -0.0404,-0.12133 -0.0135,-0.0539 -0.0135,-0.0944 0,0.0944 0.22919,-0.63364 0.20222,-0.71453 0.37749,-0.88979 0.26963,-0.26964 0.43141,-0.40446 0.17526,-0.14829 0.26963,-0.14829 0.0809,0 0.20223,-0.027 0.12133,-0.0404 0.31008,-0.10785 0.18874,-0.0674 0.31008,-0.0944 0.13481,-0.0404 0.2157,-0.0404 0.39097,0 1.07854,0.37749 0.64712,0.37749 0.78194,0.72801 0.18874,0.1483 0.28311,0.32356 0.0944,0.16178 0.0944,0.39097 v 0.13482 q 0.0809,0.1483 0.12134,0.37748 0.0539,0.22919 0.0539,0.56624 z"
       id="text1"
       style="font-size:27.6105px;font-family:'Poseidon AOE';-inkscape-font-specification:'Poseidon AOE';fill:url(#linearGradient3);stroke-width:2.30087"
       inkscape:label="text1"
       transform="scale(0.96829969,1.0327381)"
       aria-label="Creatio" />
  </g>
</svg>
